<?xml version="1.0" encoding="UTF-8"?>
<svg xmlns="http://www.w3.org/2000/svg" xmlns:xlink="http://www.w3.org/1999/xlink" width="20px" height="20px" viewBox="0 0 20 20" version="1.1">
<g id="surface1">
<path style=" stroke:none;fill-rule:nonzero;fill:rgb(0%,0%,0%);fill-opacity:1;" d="M 11.78125 4.007812 C 11.875 4.136719 12.019531 4.210938 12.167969 4.210938 C 12.257812 4.210938 12.351562 4.1875 12.429688 4.132812 C 12.644531 3.988281 12.699219 3.695312 12.554688 3.480469 L 11.882812 2.488281 C 11.738281 2.273438 11.445312 2.21875 11.230469 2.363281 C 11.019531 2.507812 10.960938 2.800781 11.105469 3.011719 Z M 11.78125 4.007812 "/>
<path style=" stroke:none;fill-rule:nonzero;fill:rgb(0%,0%,0%);fill-opacity:1;" d="M 4.480469 7.34375 C 4.539062 7.363281 4.59375 7.375 4.648438 7.375 C 4.835938 7.375 5.019531 7.261719 5.085938 7.074219 L 5.542969 5.882812 C 5.636719 5.636719 5.519531 5.367188 5.273438 5.273438 C 5.039062 5.179688 4.761719 5.300781 4.667969 5.542969 L 4.210938 6.738281 C 4.117188 6.980469 4.238281 7.25 4.480469 7.34375 Z M 4.480469 7.34375 "/>
<path style=" stroke:none;fill-rule:nonzero;fill:rgb(0%,0%,0%);fill-opacity:1;" d="M 15.425781 11.332031 C 15.167969 11.304688 14.9375 11.488281 14.90625 11.742188 L 14.78125 12.875 C 14.757812 13.132812 14.9375 13.363281 15.199219 13.394531 C 15.21875 13.394531 15.230469 13.394531 15.25 13.394531 C 15.488281 13.394531 15.6875 13.21875 15.71875 12.976562 L 15.84375 11.84375 C 15.867188 11.585938 15.6875 11.355469 15.425781 11.324219 Z M 15.425781 11.332031 "/>
<path style=" stroke:none;fill-rule:nonzero;fill:rgb(0%,0%,0%);fill-opacity:1;" d="M 7.71875 15.195312 L 6.679688 15.4375 C 6.429688 15.492188 6.273438 15.75 6.332031 16 C 6.382812 16.21875 6.574219 16.363281 6.789062 16.363281 C 6.824219 16.363281 6.863281 16.363281 6.894531 16.351562 L 7.929688 16.105469 C 8.179688 16.050781 8.335938 15.792969 8.28125 15.542969 C 8.21875 15.292969 7.960938 15.136719 7.71875 15.195312 Z M 7.71875 15.195312 "/>
<path style=" stroke:none;fill-rule:nonzero;fill:rgb(0%,0%,0%);fill-opacity:1;" d="M 19.207031 10.167969 C 19.207031 10.113281 19.210938 10.054688 19.210938 10 C 19.21875 4.917969 15.082031 0.78125 10 0.78125 C 4.917969 0.78125 1.074219 4.644531 0.804688 9.492188 C 0.78125 9.550781 0.761719 9.613281 0.761719 9.679688 C 0.761719 9.730469 0.773438 9.78125 0.789062 9.832031 C 0.789062 9.886719 0.78125 9.945312 0.78125 10 C 0.78125 15.082031 4.917969 19.21875 10 19.21875 C 15.082031 19.21875 18.925781 15.355469 19.195312 10.507812 C 19.21875 10.449219 19.238281 10.386719 19.238281 10.320312 C 19.238281 10.269531 19.226562 10.21875 19.210938 10.167969 Z M 10 1.71875 C 14.335938 1.71875 17.898438 5.070312 18.242188 9.320312 C 18.132812 9.261719 18.011719 9.21875 17.855469 9.21875 C 17.394531 9.21875 17.15625 9.550781 17.023438 9.726562 C 17.007812 9.75 16.980469 9.789062 16.960938 9.8125 C 16.945312 9.789062 16.917969 9.75 16.898438 9.726562 C 16.773438 9.550781 16.539062 9.21875 16.074219 9.21875 C 15.613281 9.21875 15.375 9.550781 15.25 9.726562 C 15.230469 9.75 15.207031 9.789062 15.1875 9.8125 C 15.167969 9.789062 15.144531 9.75 15.125 9.726562 C 15.042969 9.613281 14.914062 9.445312 14.710938 9.332031 C 14.386719 7.019531 12.40625 5.238281 10.007812 5.238281 C 7.605469 5.238281 5.605469 7.039062 5.292969 9.363281 C 5.167969 9.28125 5.019531 9.210938 4.820312 9.210938 C 4.355469 9.210938 4.117188 9.542969 3.988281 9.71875 C 3.96875 9.742188 3.945312 9.78125 3.925781 9.804688 C 3.90625 9.78125 3.882812 9.742188 3.863281 9.71875 C 3.738281 9.542969 3.5 9.210938 3.039062 9.210938 C 2.574219 9.210938 2.335938 9.542969 2.210938 9.71875 C 2.195312 9.742188 2.167969 9.78125 2.148438 9.804688 C 2.132812 9.78125 2.105469 9.742188 2.085938 9.71875 C 2.019531 9.625 1.914062 9.480469 1.761719 9.375 C 2.070312 5.105469 5.644531 1.71875 10 1.71875 Z M 13.824219 10 C 13.824219 12.105469 12.113281 13.824219 10 13.824219 C 8.007812 13.824219 6.363281 12.289062 6.195312 10.332031 C 6.195312 10.332031 6.195312 10.332031 6.195312 10.324219 C 6.195312 10.324219 6.195312 10.3125 6.195312 10.304688 C 6.1875 10.207031 6.179688 10.105469 6.179688 10.007812 C 6.179688 7.898438 7.894531 6.1875 10 6.1875 C 11.992188 6.1875 13.636719 7.726562 13.804688 9.679688 C 13.804688 9.679688 13.804688 9.6875 13.804688 9.695312 C 13.804688 9.699219 13.804688 9.707031 13.804688 9.710938 C 13.8125 9.8125 13.820312 9.914062 13.820312 10.011719 Z M 10 18.28125 C 5.664062 18.28125 2.101562 14.929688 1.757812 10.679688 C 1.863281 10.738281 1.988281 10.78125 2.144531 10.78125 C 2.605469 10.78125 2.84375 10.449219 2.96875 10.269531 C 2.988281 10.242188 3.011719 10.210938 3.03125 10.179688 C 3.050781 10.207031 3.074219 10.242188 3.09375 10.269531 C 3.21875 10.445312 3.457031 10.773438 3.917969 10.773438 C 4.382812 10.773438 4.617188 10.445312 4.742188 10.269531 C 4.761719 10.242188 4.789062 10.207031 4.804688 10.179688 C 4.824219 10.207031 4.851562 10.242188 4.867188 10.269531 C 4.949219 10.382812 5.082031 10.550781 5.28125 10.664062 C 5.605469 12.976562 7.585938 14.757812 9.988281 14.757812 C 12.386719 14.757812 14.386719 12.957031 14.699219 10.632812 C 14.824219 10.710938 14.976562 10.78125 15.167969 10.78125 C 15.632812 10.78125 15.867188 10.449219 15.992188 10.269531 C 16.011719 10.242188 16.039062 10.210938 16.054688 10.179688 C 16.074219 10.207031 16.101562 10.242188 16.117188 10.269531 C 16.242188 10.445312 16.480469 10.773438 16.945312 10.773438 C 17.40625 10.773438 17.644531 10.445312 17.773438 10.269531 C 17.792969 10.242188 17.820312 10.207031 17.835938 10.179688 C 17.855469 10.207031 17.882812 10.242188 17.898438 10.269531 C 17.96875 10.363281 18.074219 10.507812 18.226562 10.613281 C 17.90625 14.894531 14.332031 18.273438 9.976562 18.273438 Z M 10 18.28125 "/>
</g>
</svg>
