<?xml version="1.0" encoding="UTF-8"?>
<svg xmlns="http://www.w3.org/2000/svg" xmlns:xlink="http://www.w3.org/1999/xlink" width="20px" height="20px" viewBox="0 0 20 20" version="1.1">
<g id="surface1">
<path style=" stroke:none;fill-rule:nonzero;fill:rgb(0%,0%,0%);fill-opacity:1;" d="M 1.046875 19.984375 C 0.921875 19.984375 0.796875 19.9375 0.703125 19.828125 C 0.609375 19.734375 0.5625 19.609375 0.578125 19.46875 L 1.5625 4.34375 C 1.578125 4.09375 1.78125 3.90625 2.03125 3.90625 L 6.15625 3.90625 L 6.15625 3.84375 C 6.15625 2.8125 6.5625 1.859375 7.28125 1.125 C 8.015625 0.421875 8.96875 0.015625 10 0.015625 C 12.109375 0.015625 13.84375 1.734375 13.84375 3.859375 C 13.84375 3.875 13.828125 3.890625 13.828125 3.90625 L 13.828125 3.921875 L 17.96875 3.921875 C 18.21875 3.921875 18.421875 4.109375 18.4375 4.359375 L 19.40625 19.375 C 19.421875 19.421875 19.421875 19.453125 19.421875 19.5 C 19.40625 19.765625 19.203125 19.984375 18.9375 19.984375 Z M 1.546875 19.046875 L 18.4375 19.046875 L 17.53125 4.859375 L 13.828125 4.859375 L 13.828125 5.984375 L 13.84375 5.984375 C 14.09375 6.15625 14.234375 6.40625 14.234375 6.6875 C 14.234375 7.171875 13.84375 7.5625 13.359375 7.5625 C 12.875 7.5625 12.484375 7.171875 12.484375 6.6875 C 12.484375 6.40625 12.625 6.15625 12.875 5.984375 L 12.890625 5.984375 L 12.890625 4.859375 L 7.09375 4.859375 L 7.09375 5.984375 L 7.109375 5.984375 C 7.359375 6.15625 7.5 6.40625 7.5 6.6875 C 7.5 7.171875 7.109375 7.5625 6.625 7.5625 C 6.140625 7.5625 5.75 7.171875 5.75 6.6875 C 5.75 6.40625 5.890625 6.15625 6.140625 5.984375 L 6.15625 5.984375 L 6.15625 4.859375 L 2.453125 4.859375 Z M 10 0.96875 C 8.40625 0.96875 7.09375 2.265625 7.09375 3.875 L 7.09375 3.9375 L 12.921875 3.9375 L 12.90625 3.90625 L 12.90625 3.875 C 12.90625 2.265625 11.59375 0.96875 10 0.96875 Z M 10 0.96875 "/>
</g>
</svg>
