<?xml version="1.0" encoding="UTF-8"?>
<svg xmlns="http://www.w3.org/2000/svg" xmlns:xlink="http://www.w3.org/1999/xlink" width="20px" height="20px" viewBox="0 0 20 20" version="1.1">
<g id="surface1">
<path style=" stroke:none;fill-rule:nonzero;fill:rgb(0%,0%,0%);fill-opacity:1;" d="M 5.023438 16.167969 C 4.980469 16.625 5.3125 17.035156 5.773438 17.078125 C 6.230469 17.125 6.636719 16.789062 6.683594 16.332031 Z M 13.316406 16.332031 C 13.363281 16.789062 13.769531 17.125 14.226562 17.078125 C 14.6875 17.035156 15.019531 16.625 14.976562 16.167969 Z M 16.667969 10 C 16.667969 13.683594 13.683594 16.667969 10 16.667969 L 10 18.332031 C 14.601562 18.332031 18.332031 14.601562 18.332031 10 Z M 10 16.667969 C 6.316406 16.667969 3.332031 13.683594 3.332031 10 L 1.667969 10 C 1.667969 14.601562 5.398438 18.332031 10 18.332031 Z M 3.332031 10 C 3.332031 6.316406 6.316406 3.332031 10 3.332031 L 10 1.667969 C 5.398438 1.667969 1.667969 5.398438 1.667969 10 Z M 10 3.332031 C 13.683594 3.332031 16.667969 6.316406 16.667969 10 L 18.332031 10 C 18.332031 5.398438 14.601562 1.667969 10 1.667969 Z M 10.832031 8.332031 C 10.832031 8.792969 10.460938 9.167969 10 9.167969 L 10 10.832031 C 11.378906 10.832031 12.5 9.714844 12.5 8.332031 Z M 10 9.167969 C 9.539062 9.167969 9.167969 8.792969 9.167969 8.332031 L 7.5 8.332031 C 7.5 9.714844 8.621094 10.832031 10 10.832031 Z M 9.167969 8.332031 C 9.167969 7.875 9.539062 7.5 10 7.5 L 10 5.832031 C 8.621094 5.832031 7.5 6.953125 7.5 8.332031 Z M 10 7.5 C 10.460938 7.5 10.832031 7.875 10.832031 8.332031 L 12.5 8.332031 C 12.5 6.953125 11.378906 5.832031 10 5.832031 Z M 6.683594 16.332031 C 6.851562 14.648438 8.273438 13.332031 10 13.332031 L 10 11.667969 C 7.40625 11.667969 5.277344 13.640625 5.023438 16.167969 Z M 10 13.332031 C 11.726562 13.332031 13.148438 14.648438 13.316406 16.332031 L 14.976562 16.167969 C 14.722656 13.640625 12.59375 11.667969 10 11.667969 Z M 10 13.332031 "/>
</g>
</svg>
